:SAMPLES-PER-SECOND 30
:FULLY-SPECIFIED
:DEGREES
184
root  41.1408 35.8729 -13.2186 -170.857 87.9315 151.672
RightUpLeg  -75.0657 -12.5382 16.2364
RightLeg  38.7412 -0.354052 -0.585595
RightFoot  -1.3144 0.861863 -9.88842
RightToes  0.00048216 0.542163 -0.142577
Spine  71.9366 -5.02066 7.40228
Spine1  0.69798 1.20965 -5.83729
HEad  -38.0997 -4.47359 -2.54454
LeftShoulder1  8.94747 -26.9601 -22.8687
LeftArm  -82.6706 -66.0379 34.1108
LeftForeArm  -1.82156 -14.4596 -2.04052
LeftHand  -0.25398 0.0180481 5.50724
RightShoulder  4.03074 15.5962 14.2115
RightArm  -69.8749 52.0582 -27.1515
RightForeArm  -20.1783 9.14331 3.13332
RightHand  1.20872 10.8126 8.06968
LeftUpLeg  -74.3443 13.5905 -21.4774
LeftLeg  37.5903 -1.63626 -0.978512
LeftFoot  -2.30735 -0.921686 11.8002
LeftToes  1.06243e-005 4.65856e-005 -8.18503e-006
185
root  41.3791 35.8591 -13.1471 -169.645 87.7375 151.979
RightUpLeg  -75.6884 -12.1582 16.0927
RightLeg  39.1501 -0.829259 -1.0068
RightFoot  -2.07219 0.767984 -9.61631
RightToes  0.00048216 0.542163 -0.142577
Spine  72.2599 -4.99811 7.27254
Spine1  0.621718 1.14645 -5.95188
HEad  -38.2095 -4.37402 -2.32165
LeftShoulder1  8.56907 -26.641 -21.8813
LeftArm  -84.4115 -65.6631 36.0848
LeftForeArm  -0.791414 -15.0759 -2.15267
LeftHand  -0.25398 0.0180481 5.50724
RightShoulder  3.97649 15.5379 13.9696
RightArm  -70.6543 51.7518 -27.5337
RightForeArm  -19.6984 10.0829 3.10756
RightHand  1.00843 9.8692 7.09478
LeftUpLeg  -74.9476 13.2285 -21.2998
LeftLeg  37.8345 -1.47298 -0.853237
LeftFoot  -2.77702 -0.812167 11.021
LeftToes  1.06243e-005 4.65856e-005 -8.18503e-006
186
root  41.5687 35.8716 -13.0741 -167.618 87.5804 153.378
RightUpLeg  -75.9906 -11.8365 16.0074
RightLeg  39.2313 -1.11192 -1.25659
RightFoot  -2.29296 0.74632 -9.59605
RightToes  0.00048216 0.542163 -0.142577
Spine  72.626 -4.92211 6.96493
Spine1  0.693259 1.13801 -5.98077
HEad  -38.0907 -4.00039 -2.09025
LeftShoulder1  8.22681 -26.4643 -20.8533
LeftArm  -85.4699 -64.9986 38.0195
LeftForeArm  -0.223209 -15.1592 -2.15693
LeftHand  -0.25398 0.0180481 5.50724
RightShoulder  3.82883 15.4056 13.2722
RightArm  -70.7277 51.6496 -27.3406
RightForeArm  -20.2115 11.0803 3.29019
RightHand  0.627195 8.16299 4.85238
LeftUpLeg  -75.3311 13.192 -21.2815
LeftLeg  38.0479 -1.37593 -0.779522
LeftFoot  -3.4513 -0.645787 9.64667
LeftToes  1.06243e-005 4.65856e-005 -8.18503e-006
187
root  41.7158 35.8822 -12.9908 -165.108 87.464 155.493
RightUpLeg  -76.0609 -11.3757 15.7486
RightLeg  39.2896 -1.49222 -1.59254
RightFoot  -2.49662 0.719162 -9.48414
RightToes  0.00048216 0.542163 -0.142577
Spine  72.894 -4.7485 6.64167
Spine1  0.817991 1.09989 -5.85806
HEad  -37.796 -3.64122 -1.91985
LeftShoulder1  7.85685 -26.3354 -19.6623
LeftArm  -86.2715 -64.4966 39.4427
LeftForeArm  0.902875 -14.7977 -1.94402
LeftHand  -0.25398 0.0180481 5.50724
RightShoulder  3.63532 15.2719 12.2966
RightArm  -70.1254 51.6715 -26.8171
RightForeArm  -20.8455 11.7676 3.54878
RightHand  0.163771 7.19608 1.08684
LeftUpLeg  -75.6607 13.4016 -21.4516
LeftLeg  38.2567 -1.41892 -0.823456
LeftFoot  -3.7518 -0.581294 9.08841
LeftToes  1.06243e-005 4.65856e-005 -8.18503e-006
188
root  41.8293 35.8738 -12.9043 -164.818 87.3364 155.544
RightUpLeg  -76.0597 -10.8316 15.1762
RightLeg  39.5605 -2.07202 -2.11966
RightFoot  -2.98157 0.65085 -9.15222
RightToes  0.00048216 0.542163 -0.142577
Spine  72.9678 -4.62255 6.40325
Spine1  0.953733 0.965276 -5.81161
HEad  -37.3796 -3.51397 -1.76135
LeftShoulder1  7.42648 -26.124 -18.3132
LeftArm  -86.9073 -64.45 39.977
LeftForeArm  2.23478 -14.2154 -1.58864
LeftHand  -0.25398 0.0180481 5.50724
RightShoulder  3.5396 15.2852 11.7178
RightArm  -69.5923 51.7302 -26.3392
RightForeArm  -20.7757 12.1439 3.6771
RightHand  -0.311353 7.72328 -3.19439
LeftUpLeg  -75.9475 13.661 -21.8195
LeftLeg  38.4026 -1.69786 -1.06658
LeftFoot  -3.66387 -0.614223 9.45981
LeftToes  1.06243e-005 4.65856e-005 -8.18503e-006
189
root  41.9069 35.8565 -12.8207 -167.751 87.1828 152.518
RightUpLeg  -76.0722 -10.388 14.4641
RightLeg  39.9557 -2.64596 -2.66131
RightFoot  -3.36286 0.602142 -8.93459
RightToes  0.00048216 0.542163 -0.142577
Spine  72.9728 -4.65643 6.20524
Spine1  1.16843 0.784859 -6.01748
HEad  -36.9159 -3.52025 -1.50888
LeftShoulder1  7.03281 -25.8141 -17.1613
LeftArm  -87.5116 -64.6877 40.1451
LeftForeArm  2.41479 -13.7154 -1.30814
LeftHand  -0.25398 0.0180481 5.50724
RightShoulder  3.57036 15.4654 11.6975
RightArm  -69.7326 51.8065 -25.9104
RightForeArm  -20.4211 12.56 3.64651
RightHand  -0.771611 8.93444 -6.73953
LeftUpLeg  -76.081 13.7913 -22.1659
LeftLeg  38.543 -1.94503 -1.28455
LeftFoot  -3.54622 -0.644069 9.74289
LeftToes  1.06243e-005 4.65856e-005 -8.18503e-006
190
root  41.9355 35.8371 -12.7294 -171.135 86.999 149.238
RightUpLeg  -76.0665 -10.101 13.8961
RightLeg  40.3617 -3.10797 -3.11713
RightFoot  -3.42263 0.601483 -8.9969
RightToes  0.00048216 0.542163 -0.142577
Spine  72.9007 -4.71148 6.07172
Spine1  1.74633 0.690316 -6.19711
HEad  -36.622 -3.5427 -1.19218
LeftShoulder1  6.71222 -25.565 -16.1967
LeftArm  -88.5434 -64.958 40.8689
LeftForeArm  1.07064 -13.1098 -1.06607
LeftHand  -0.25398 0.0180481 5.50724
RightShoulder  3.56242 15.5922 11.5121
RightArm  -70.4143 51.9141 -25.3687
RightForeArm  -20.7209 12.8863 3.50182
RightHand  -1.14806 9.85604 -9.22606
LeftUpLeg  -76.066 13.7573 -22.1644
LeftLeg  38.8146 -1.87818 -1.24139
LeftFoot  -3.435 -0.628263 9.37079
LeftToes  1.06243e-005 4.65856e-005 -8.18503e-006
191
root  41.9014 35.8083 -12.6253 -173.224 86.7896 147.507
RightUpLeg  -75.983 -9.99343 13.5962
RightLeg  40.816 -3.43901 -3.47018
RightFoot  -3.39416 0.615799 -9.16694
RightToes  0.00048216 0.542163 -0.142577
Spine  72.7347 -4.73721 6.05172
Spine1  2.50164 0.656216 -6.25199
HEad  -36.3376 -3.51955 -0.89936
LeftShoulder1  6.3793 -25.449 -15.0518
LeftArm  -89.5424 -65.2904 41.8954
LeftForeArm  -0.281214 -11.9502 -0.734589
LeftHand  -0.25398 0.0180481 5.50724
RightShoulder  3.47327 15.6158 10.9696
RightArm  -70.9473 52.2055 -24.7893
RightForeArm  -21.7421 12.5214 3.26503
RightHand  -1.53301 10.5332 -11.6281
LeftUpLeg  -75.9471 13.6807 -21.8832
LeftLeg  39.1592 -1.70179 -1.10609
LeftFoot  -3.15314 -0.613869 8.82445
LeftToes  1.06243e-005 4.65856e-005 -8.18503e-006
192
root  41.7925 35.782 -12.5253 -175.461 86.5577 145.923
RightUpLeg  -75.742 -10.2071 13.5434
RightLeg  41.2331 -3.47573 -3.55348
RightFoot  -3.32393 0.638711 -9.40402
RightToes  0.00048216 0.542163 -0.142577
Spine  72.4821 -4.78547 6.08627
Spine1  3.12272 0.597964 -6.24088
HEad  -35.6153 -3.5108 -0.778013
LeftShoulder1  6.06577 -25.487 -13.8419
LeftArm  -89.8355 -65.7885 42.5509
LeftForeArm  0.661645 -10.254 -0.430856
LeftHand  -0.25398 0.0180481 5.50724
RightShoulder  3.39338 15.6025 10.5196
RightArm  -70.8916 52.9305 -24.5421
RightForeArm  -22.6139 11.3219 3.03559
RightHand  -2.17628 11.5193 -15.3118
LeftUpLeg  -75.601 13.6838 -21.703
LeftLeg  39.3328 -1.69294 -1.10662
LeftFoot  -2.66092 -0.657592 8.8532
LeftToes  1.06243e-005 4.65856e-005 -8.18503e-006
193
root  41.5974 35.8013 -12.4331 -177.556 86.3152 144.82
RightUpLeg  -75.1287 -10.7628 13.742
RightLeg  41.2249 -3.17325 -3.27115
RightFoot  -2.93399 0.705847 -9.83603
RightToes  0.00048216 0.542163 -0.142577
Spine  72.0671 -4.75084 6.10585
Spine1  3.76093 0.560463 -5.91342
HEad  -34.3978 -3.61528 -0.949595
LeftShoulder1  5.90658 -25.6892 -13.0828
LeftArm  -89.9103 -66.3892 43.3193
LeftForeArm  4.45321 -8.26085 -0.30301
LeftHand  -0.25398 0.0180481 5.50724
RightShoulder  3.30041 15.5064 10.0763
RightArm  -70.3943 54.2471 -24.9666
RightForeArm  -22.4702 9.5058 2.97343
RightHand  -3.10731 12.6888 -20.2247
LeftUpLeg  -74.8262 13.805 -21.5962
LeftLeg  39.1071 -1.70398 -1.10573
LeftFoot  -1.87851 -0.76675 9.3744
LeftToes  1.06243e-005 4.65856e-005 -8.18503e-006
194
root  41.3167 35.8949 -12.3232 -176.891 86.0774 146.793
RightUpLeg  -73.9308 -11.4508 14.228
RightLeg  40.4243 -2.78611 -2.83214
RightFoot  -2.14169 0.826335 -10.4095
RightToes  0.00048216 0.542163 -0.142577
Spine  71.4147 -4.56812 6.15695
Spine1  4.47617 0.584556 -5.18385
HEad  -32.9754 -3.74883 -1.30857
LeftShoulder1  5.89648 -25.9037 -12.8796
LeftArm  -89.9745 -67.1181 44.3488
LeftForeArm  8.60603 -5.78378 -0.307714
LeftHand  -0.25398 0.0180481 5.50724
RightShoulder  3.14817 15.3563 9.33199
RightArm  -69.6791 56.187 -25.9595
RightForeArm  -20.7265 6.80712 3.01919
RightHand  -3.88695 13.2064 -24.4073
LeftUpLeg  -73.5412 13.9717 -21.062
LeftLeg  38.289 -1.55588 -0.942141
LeftFoot  -0.692418 -0.885476 9.52948
LeftToes  1.06243e-005 4.65856e-005 -8.18503e-006
195
root  40.9698 36.0488 -12.1813 -174.094 85.8424 151.154
RightUpLeg  -72.1414 -12.1773 14.9145
RightLeg  38.855 -2.45268 -2.39957
RightFoot  -1.17293 0.970461 -10.9522
RightToes  0.00048216 0.542163 -0.142577
Spine  70.3819 -4.34117 6.33453
Spine1  5.26658 0.698009 -4.42279
HEad  -31.5858 -3.89656 -1.74449
LeftShoulder1  5.96678 -26.0685 -13.0147
LeftArm  -88.5509 -68.243 43.3101
LeftForeArm  9.82917 -2.72158 -0.389909
LeftHand  -0.25398 0.0180481 5.50724
RightShoulder  2.99101 15.1245 8.62449
RightArm  -69.0281 58.6388 -26.7214
RightForeArm  -17.2884 3.08733 2.95788
RightHand  -4.06909 12.658 -26.1952
LeftUpLeg  -71.7145 14.0378 -19.89
LeftLeg  36.8335 -1.40592 -0.760379
LeftFoot  0.652596 -0.947001 8.96016
LeftToes  1.06243e-005 4.65856e-005 -8.18503e-006
196
root  40.5797 36.2449 -12.0246 -173.717 85.5933 153.45
RightUpLeg  -69.8217 -13.1871 15.5526
RightLeg  36.8323 -1.95491 -1.84389
RightFoot  -0.15961 1.12767 -11.4789
RightToes  0.00048216 0.542163 -0.142577
Spine  69.0349 -4.23122 6.60982
Spine1  6.16341 0.854489 -4.01312
HEad  -30.0723 -4.10965 -2.36251
LeftShoulder1  6.2587 -26.2486 -13.9478
LeftArm  -82.3769 -69.7527 36.2927
LeftForeArm  7.69399 0.0913723 -0.633309
LeftHand  -0.25398 0.0180481 5.50724
RightShoulder  2.95673 14.769 8.76839
RightArm  -68.0246 61.1871 -25.5233
RightForeArm  -13.4869 -0.440698 2.77322
RightHand  -3.92639 11.8715 -26.4105
LeftUpLeg  -69.2404 13.952 -18.4966
LeftLeg  35.0046 -1.29671 -0.614274
LeftFoot  1.98341 -0.995395 8.39271
LeftToes  1.06243e-005 4.65856e-005 -8.18503e-006
